PathFileType	4	(X/Y/Z)	C:/Users/beibeiliu/ov580/test_trc/capture2\sequence.28_training_dense_left.trc
DataRate	CameraRate	NumFrames	NumMarkers	Units	OrigDataRate	OrigDataStartFrame	OrigNumFrames
120	120	9	19	mm	120	301	400
Frame#	Time	ThumbCMC			ThumbMCP			ThumbIP			ThumbTip			IndexMCP			IndexPIP			IndexTip			MiddleMCP			MiddlePIP			MiddleTip			RingMCP			RingPIP			RingTip			PinkyMCP			PinkyPIP			PinkyTip			BackHand1			BackHand2			BackHand3	
		X0	Y0	Z0	X1	Y1	Z1	X2	Y2	Z2	X3	Y3	Z3	X4	Y4	Z4	X5	Y5	Z5	X6	Y6	Z6	X7	Y7	Z7	X8	Y8	Z8	X9	Y9	Z9	X10	Y10	Z10	X11	Y11	Z11	X12	Y12	Z12	X13	Y13	Z13	X14	Y14	Z14	X15	Y15	Z15	X16	Y16	Z16	X17	Y17	Z17	X18	Y18	Z18	
300	2.5	-110.03	-20.3568	39.1055	-108.176	-35.0835	12.5173	-104.537	-42.6309	-10.3011	-95.922	-53.7994	-29.7973	-141.127	-22.746	-36.6225	-152.817	-41.718	-48.8116	-177.369	-55.265	-55.3273	-161.357	-20.3527	-29.9213	-176.793	-46.0546	-20.5075	-175.689	-55.6918	13.0716	-176.37	-15.2751	-17.4424	-182.253	-36.4049	1.1733	-164.717	-33.3747	34.2346	-186.693	-6.46574	-5.3937	-186.991	-24.8725	14.7745	-167.397	-22.9649	38.2417	-145.305	25.5375	10.7943	-134.925	31.4716	36.541	-118.787	12.636	21.2798	
301	2.50833	-111.75	-19.887	35.6826	-107.306	-35.5798	11.5293	-102.107	-45.3313	-10.0929	-97.0081	-51.7131	-27.3725	-136.941	-23.1047	-33.9519	-151.539	-43.1485	-45.8941	-172.327	-63.2081	-50.4122	-156.354	-16.9914	-29.6753	-176.997	-45.5313	-19.6148	-180.224	-53.7149	12.1139	-170.114	-12.6851	-18.1953	-183.687	-35.0358	2.08622	-162.422	-35.0288	31.9655	-185.103	-3.49565	-7.62457	-185.222	-23.6313	13.9706	-166.119	-22.6246	37.6801	-146.248	28.5154	10.987	-135.818	33.4123	38.3836	-113.887	11.5156	21.1901	
302	2.51667	-109.361	-22.5336	36.3371	-106.557	-37.8064	11.5125	-103.054	-44.4044	-8.72507	-95.3092	-53.5449	-31.9157	-131.279	-26.7045	-34.9494	-148.835	-44.3232	-45.5766	-173.495	-65.8249	-48.1247	-156.34	-18.3848	-31.7501	-174.568	-44.752	-23.8952	-180.145	-58.6628	4.46845	-170.928	-14.2739	-20.4752	-183.576	-33.0371	-0.765873	-165.239	-35.3147	31.673	-180.82	-2.56488	-9.04034	-182.439	-23.9516	10.4654	-166.597	-22.7232	37.4917	-142.347	28.8232	10.5147	-137.026	33.5688	39.5428	-112.672	9.72161	24.7664	
303	2.525	-111.661	-21.9007	37.5773	-106.667	-37.8769	12.7913	-104.621	-43.878	-9.5838	-96.4808	-54.2154	-28.5104	-133.464	-23.0342	-35.0485	-152.415	-43.5584	-45.9974	-171.398	-61.1915	-49.4767	-154.886	-18.4228	-34.9717	-175.337	-41.1836	-28.837	-183.53	-62.1169	-3.42107	-170.276	-7.45047	-20.3974	-179.576	-33.3821	-6.37857	-170.116	-38.547	26.6124	-177.487	0.560487	-11.2382	-185.268	-23.1005	10.0028	-171.983	-26.1351	33.7359	-141.417	28.9538	7.41154	-135.523	35.2733	37.2507	-113.147	11.3341	24.6455	
304	2.53333	-112.43	-20.4308	36.0205	-107.542	-38.7008	13.6106	-105.323	-42.1752	-11.8731	-98.9782	-50.3256	-32.3861	-132.79	-22.5612	-35.1467	-150.842	-41.0184	-47.7184	-171.622	-55.9434	-54.7177	-154.332	-12.3715	-33.7792	-172.383	-33.4812	-36.1708	-191.407	-59.9241	-18.9327	-169.615	-9.15045	-23.4992	-180.436	-34.4465	-9.43843	-177.523	-42.4671	18.3308	-179.709	1.62295	-12.7145	-184.984	-21.5948	2.55029	-175.865	-31.5804	29.5881	-137.648	30.4274	11.2447	-132.759	30.9362	38.7024	-110.21	9.96732	23.2263	
305	2.54167	-111.367	-19.9339	35.0863	-111.619	-35.2122	15.1025	-103.386	-44.3836	-11.7322	-98.0327	-53.0652	-31.0174	-130.591	-23.7284	-38.4403	-146.927	-34.4665	-51.4788	-169.243	-50.7995	-64.7881	-151.334	-8.21545	-34.4915	-169.338	-30.7773	-41.6027	-190.519	-58.2682	-34.8038	-169.136	-2.95215	-25.53	-186.767	-25.7653	-17.9584	-183.535	-45.716	8.66828	-180.026	9.77664	-14.5363	-189.879	-18.5375	-4.94136	-181.064	-35.0556	21.7626	-138.903	30.9717	11.3581	-133.395	36.1717	37.2701	-111.255	12.2763	25.5558	
306	2.55	-112.824	-21.0502	39.4432	-112.884	-35.7972	14.3924	-104.753	-44.653	-12.6896	-98.4991	-54.4862	-27.6382	-130.729	-16.5768	-37.7867	-146.57	-28.3629	-56.7907	-163.436	-37.9733	-72.4603	-149.808	-6.38041	-37.2501	-168.856	-24.7842	-47.8739	-191.686	-50.6503	-51.0605	-169.576	0.725646	-29.1807	-187.03	-25.541	-26.5016	-195.865	-44.0533	-7.48547	-175.76	12.1505	-17.5479	-191.327	-14.4267	-13.5907	-192.809	-34.5744	7.47129	-136.397	30.8351	10.5925	-131.441	34.8718	39.4494	-112.474	13.6596	25.0347	
307	2.55833	-110.234	-24.4727	39.4173	-110.497	-41.9335	17.7686	-107.115	-47.7696	-8.37132	-101.132	-56.5077	-28.9619	-125.149	-14.5541	-38.1349	-139.3	-20.7639	-59.062	-153.682	-24.8318	-78.5568	-148.465	-2.71205	-39.4724	-167.95	-18.5023	-57.8157	-187.442	-36.8713	-67.6008	-163.928	3.54486	-33.9652	-184.331	-16.6243	-39.7791	-202.529	-36.8303	-30.3193	-177.529	17.2716	-20.9762	-193.664	-3.88032	-25.9665	-202.583	-32.4271	-12.2064	-136.914	30.8932	12.9755	-129.396	32.5447	38.4725	-108.867	9.30476	25.5652	
308	2.56667	-114.701	-24.8602	35.1479	-113.741	-43.5745	17.736	-107.487	-55.1446	-7.40324	-104.904	-63.0995	-24.8488	-122.066	-15.7068	-38.5597	-129.165	-20.7793	-63.8069	-141.169	-19.7712	-84.8474	-142.822	0.12413	-42.4126	-158.171	-11.5674	-63.3535	-177.323	-21.2687	-82.374	-162.607	8.95378	-38.1419	-180.99	-4.18851	-52.2229	-197.261	-26.0765	-56.9619	-174.071	23.942	-21.6815	-194.21	5.56973	-37.5124	-208.76	-15.5291	-40.7092	-134.094	27.4242	11.4862	-131.92	32.5845	38.5263	-113.475	8.79975	22.9738	
